<svg xmlns="http://www.w3.org/2000/svg" width="512" height="512" fill="none" viewBox="0 0 512 512">
  <path fill="#151515" d="M512 0H0v512h512V0Z"/>
  <path fill="#F0F0F0" d="M300.119 157.805c-21.817.009-39.196 7.004-48.196 19.397l-95.135 111.253a11.085 11.085 0 0 0-2.383 9.664l12.059 52.953c.987 5.433-2.077 11.91-2.077 11.91L94.898 512H299.08l116.666-250.191c.147-.238.294-.477.434-.718 13.109-28.114-13.804-68.41-60.112-90.004-18.458-8.607-38.124-13.276-55.949-13.282Zm32.163-37.198c.387-1.467 2.154-2.053 3.338-1.107l13.713 10.952c.617.492.905 1.287.746 2.059l-4.038 19.704c-.331 1.63-2.339 2.24-3.525 1.073l-14.08-13.869a2.094 2.094 0 0 1-.557-2.026l4.403-16.786Z"/>
  <path fill="#FFAB07" d="M401.395 121.453c.857-3.134-1.795-6.114-5.008-5.628l-28.32 4.289a4.497 4.497 0 0 0-3.592 3.023l-10.376 31.154c-1.123 3.381 1.945 6.665 5.394 5.769l31.223-8.113a4.495 4.495 0 0 0 3.205-3.163l7.474-27.331Z"/>
  <path fill="#F0F0F0" stroke="#151515" stroke-width="12" d="M361.573 272.146c0 35.951-26.879 0-60.037 0-33.155 0-60.033 35.951-60.033 0 0-35.949 26.878-65.092 60.033-65.092 33.158 0 60.037 29.143 60.037 65.092Z"/>
  <path fill="#FFAB07" d="M149.956 85.918c-2.059.06-2.889 3.574-2.572 4.925l39.328 132.224c1.182 4.781 3.462 6.138 6.478 3.897a6.69 6.69 0 0 0 1.024-.974c4.914-5.547 47.385-53.489 48.937-55.182 1.497-1.797 1.497-5.242-.449-6.89l-91.124-77.419c-.607-.424-1.148-.594-1.622-.58ZM97.699 221.667c-2.288-.109-3.754 3.043-1.928 5.008 1.932 2.082 48.379 52.293 49.06 53.029.024.024.012.024.037.048 1.468 1.581 3.496 1.457 4.871-.14.048-.06.085-.109.14-.167 1.603-1.877 32.952-38.585 34.049-40.318 1-1.58 1.987-5.866-1.477-8.418-.934-.687-2.073-.919-3.227-1.027-11.626-1.09-78.734-7.397-81.06-7.944-.16-.036-.311-.071-.465-.071Z"/>
  <path fill="#151515" d="M294.182 245.847a8.987 8.987 0 0 1-11.943 4.347 8.986 8.986 0 0 1-4.346-11.943 8.985 8.985 0 0 1 11.942-4.346 8.986 8.986 0 0 1 4.347 11.942Z"/>
  <path fill="#D9D9D9" d="M289.581 238.507a1.05 1.05 0 1 0 0-2.099 1.05 1.05 0 0 0 0 2.099Z"/>
</svg>
